<svg width="400" height="400" viewBox="0 0 400 400" fill="none" xmlns="http://www.w3.org/2000/svg">
<path d="M291.498 137.749L291.523 137.718L291.546 137.686L300.137 125.798L317.318 102.021L350.18 56.5465C351.226 58.0257 351.968 59.5888 352.436 60.7571C352.779 61.613 352.92 62.5973 352.92 63.6967V75.8586V103.974V160.204V268.269C352.92 270.722 352.168 273.116 350.766 275.128L318.221 321.851L300.693 347.016L299.7 348.442C298.773 349.772 297.81 351.288 296.831 352.832C296.638 353.136 296.444 353.441 296.25 353.746C295.056 355.622 293.822 357.523 292.512 359.301C290.647 361.834 288.741 363.953 286.754 365.359L285.069 258.489L284.202 203.43L283.768 175.901L283.553 162.246C283.552 162.232 283.552 162.208 283.552 162.179C283.551 162.128 283.55 162.065 283.55 162.024C283.54 161.493 283.47 159.432 282.938 157.048C282.533 155.232 281.816 153.02 280.492 151.171L283.966 147.071L283.969 147.068L287.028 143.445L287.051 143.418L287.073 143.389L291.498 137.749ZM48.0084 157.599C48.0937 155.466 48.6819 141.646 49.7479 134.55L164.219 142.067L164.23 142.068L222.706 146.232L251.949 148.315L265.64 149.29C266.01 149.316 266.496 149.332 266.912 149.345C267.159 149.353 267.382 149.36 267.541 149.368C269.107 149.448 272.837 149.948 276.568 152.709C277.797 153.914 278.58 155.881 279.034 157.918C279.484 159.936 279.543 161.701 279.55 162.097C279.551 162.135 279.551 162.16 279.551 162.185C279.552 162.217 279.552 162.249 279.553 162.309L279.768 175.964L280.202 203.493L281.07 258.552L282.782 367.205C271.564 370.716 258.183 369.36 255.621 369.05C255.323 369.014 255.008 368.979 254.683 368.953L225.26 366.644L165.559 361.958L59.061 353.599C52.817 353.109 48 347.899 48 341.636V242.12V185.889V158.038C48 157.886 48.0026 157.745 48.0084 157.599ZM164.492 138.077L50.5693 130.595C51.1635 128.778 52.1811 126.636 53.3171 124.554C54.8848 121.682 56.5114 119.22 57.0285 118.452C57.1202 118.316 57.2193 118.179 57.3284 118.035L66.6839 105.703L85.7745 80.5384L119.321 36.3182C121.796 33.0558 125.763 31.2806 129.845 31.6096L238.48 40.3653L296.62 45.0511L325.689 47.394L337.108 48.3144C338.875 48.4567 340.556 48.9773 342.004 49.8811C343.733 50.96 345.83 52.3472 347.378 53.5934L314.076 99.6784L296.895 123.455L288.327 135.311L283.948 140.892L280.915 144.485L280.912 144.487L277.502 148.512C273.433 145.981 269.57 145.466 267.745 145.373C267.376 145.354 267.101 145.347 266.85 145.34C266.547 145.332 266.279 145.325 265.924 145.3L252.233 144.325L222.99 142.242L164.503 138.077L164.492 138.077Z" fill="#807C7C" stroke="white" stroke-width="4"/>
<path d="M127.222 223.376C123.99 220.189 133.174 183.807 159.399 183.807C191.812 183.807 201.954 207.992 199.799 225.153C197.78 241.234 172.06 250.892 165.403 260.863C160.077 268.84 165.611 286.065 164.014 288.631C162.418 291.198 153.783 289.563 150.935 287.534C148.087 285.505 144.61 264.403 154.819 252.8C167.579 238.297 187.478 230.995 186.923 219.211C186.368 207.427 175.111 198.385 160.543 197.691C145.965 196.997 141.187 223.041 140.007 225.153C138.826 227.266 130.454 226.564 127.222 223.376Z" fill="white"/>
<path d="M149.436 301.127C150.897 299.274 163.073 300.662 164.708 302.515C166.344 304.368 166.461 314.093 165.403 315.705C164.345 317.317 150.668 314.541 149.436 312.928C148.204 311.316 147.975 302.98 149.436 301.127Z" fill="white"/>
<path d="M303.029 189.363C301.811 186.726 307.012 151.874 316.895 151.874C329.111 151.874 332.087 167.976 331.275 182.173C330.514 195.477 323.513 203.71 321.004 211.959C318.996 218.558 318.524 236.027 317.922 238.15C317.321 240.273 313.347 245.478 312.273 243.799C311.2 242.12 310.618 221.557 314.465 211.959C319.274 199.961 323.571 193.471 324.598 184.227C325.626 174.983 323.917 160.742 318.436 161.631C313.088 162.499 311.178 182.479 310.733 184.227C310.288 185.975 304.247 192 303.029 189.363Z" fill="white"/>
<path d="M314.465 256.638C315.016 255.105 318.605 250.483 319.221 252.016C319.837 253.549 319.62 259.926 319.221 261.26C318.822 262.594 314.929 268.243 314.465 266.909C314.001 265.575 313.914 258.171 314.465 256.638Z" fill="white"/>
<path d="M177.949 77.0278C175.288 76.0575 189.662 65.7927 211.256 65.7927C237.946 65.7927 238.806 71.804 237.032 77.0278C235.369 81.9228 199.851 90.5071 194.369 93.5422C189.983 95.9703 188.342 99.7506 187.027 100.532C185.713 101.313 178.855 101.477 176.51 100.859C174.164 100.241 175.831 94.4382 184.237 90.9065C194.744 86.4918 226.327 78.6095 225.87 75.0226C225.413 71.4356 221.901 69.8826 209.925 70.2098C198.24 70.5291 189.566 76.3847 188.594 77.0278C187.622 77.671 180.61 77.9981 177.949 77.0278Z" fill="white"/>
<path d="M169.132 105.918C170.335 105.354 179.328 106.187 180.675 106.751C182.022 107.315 177.381 113.896 176.51 114.387C175.639 114.878 162.626 114.387 161.932 112.998C161.237 111.61 167.929 106.482 169.132 105.918Z" fill="white"/>
</svg>
