<svg width="400" height="400" viewBox="0 0 400 400" fill="none" xmlns="http://www.w3.org/2000/svg">
<path d="M225 46.0001L284 162L217 154.5L225 46.0001Z" fill="#AFAEAE"/>
<path d="M225 46.0001L284 162L217 154.5L225 46.0001Z" fill="#AFAEAE"/>
<path d="M283 162L224.5 47L290.5 68L283 162Z" fill="#D9D9D9"/>
<path d="M283 162L224.5 47L290.5 68L283 162Z" fill="#868686"/>
<path d="M221 148L221 282L158.5 195.5L221 148Z" fill="#888888"/>
<path d="M221 148L221 282L158.5 195.5L221 148Z" fill="#888888"/>
<path d="M221.694 282.17L124.5 339.5L135.5 158.5L221.694 282.17Z" fill="#888888"/>
<path d="M221.694 282.17L124.5 339.5L135.5 158.5L221.694 282.17Z" fill="#888888"/>
<path d="M225 47L135.5 156.5L129 61L225 47Z" fill="white"/>
<path d="M225 47L135.5 156.5L129 61L225 47Z" fill="white"/>
<path d="M135.5 156.5L225 46.5L219.5 150L135.5 156.5Z" fill="#D9D9D9"/>
<path d="M135.5 156.5L225 46.5L219.5 150L135.5 156.5Z" fill="#D9D9D9"/>
<path d="M223.5 147.5L99.9999 263.5L136 156.5L223.5 147.5Z" fill="#D9D9D9"/>
<path d="M223.5 147.5L99.9999 263.5L136 156.5L223.5 147.5Z" fill="#D9D9D9"/>
<path d="M129 244.5L99 263L117.75 210.967L136.5 154L129 244.5Z" fill="white"/>
<path d="M129 244.5L99 263L117.75 210.967L136.5 154L129 244.5Z" fill="white"/>
<path d="M130.5 231.5L124.243 340.5L99.2301 262.686L130.5 231.5Z" fill="white"/>
<path d="M130.5 231.5L124.243 340.5L99.2301 262.686L130.5 231.5Z" fill="white"/>
<path d="M123.5 340L130.5 229.5L148 325.5L123.5 340Z" fill="white"/>
<path d="M123.5 340L130.5 229.5L148 325.5L123.5 340Z" fill="white"/>
<path d="M251.5 228L228 194.027L275.5 234L251.5 228Z" fill="white"/>
<path d="M251.5 228L228 194.027L275.5 234L251.5 228Z" fill="white"/>
<path d="M145.773 326.742L131 233L145.773 220.5L164 317L145.773 326.742Z" fill="#D9D9D9"/>
<path d="M145.773 326.742L131 233L145.773 220.5L164 317L145.773 326.742Z" fill="#D9D9D9"/>
<path d="M283.5 162L295.5 225.5L275 233.5L219 146L283.5 162Z" fill="#D9D9D9"/>
<path d="M283.5 162L295.5 225.5L275 233.5L219 146L283.5 162Z" fill="#D9D9D9"/>
<path d="M220 147.5L275 233.5L199.068 170.635L220 147.5Z" fill="white"/>
<path d="M220 147.5L275 233.5L199.068 170.635L220 147.5Z" fill="white"/>
</svg>
