<svg width="500" height="500" viewBox="0 0 500 500" fill="none" xmlns="http://www.w3.org/2000/svg">
<path d="M163 211L165 175.5L150 186L136 193.5L127.25 189L118.5 184.5L113 167L123 136H111.5L101 131.5V118.5L119.5 92.5L148.5 80L154 70H162.5L167 78H174.5L181.5 70H190L198.5 81L197.301 101L216.5 111L233.5 128L250.5 162L257 197.5L262.5 209L270.5 212.5L279.5 214L272.5 221.5H301.5L318.5 226L333 239.5L339 252.5L342 268.5V284.5L337.5 298.5L330 314V331L333 352.5L330 379.5L320.5 424H293.5L298.5 406L304.5 369L301.5 331L286 381L276.5 424H250L258 406L265 379.5V345L255.5 311.5L235 314L233.5 369L226 424H176.5L181 406L182.5 369L163 280V211Z" fill="red"/>
</svg>
