<svg width="500" height="500" viewBox="0 0 500 500" fill="none" xmlns="http://www.w3.org/2000/svg">
<path d="M161.5 211.5L163 172L182 144.5L194.5 98.5C194.5 98.5 206.5 104 215.5 110C224.5 116 234.5 127.5 234.5 127.5C234.5 127.5 246 148 248 155C250 162 253 185.5 255 193.5C257 201.5 259.5 206 264 209.5C268.5 213 267 212 272.5 213C278 214 279.5 213 279.5 213C279.5 213 277.5 219 272.5 220.5C267.5 222 296.5 220 301 220.5C305.5 221 319.5 225 319.5 225L333.5 238L340 252L342 268.5L341 284.5L337.5 298.5C337.5 298.5 334 308.5 332 315.5C330 322.5 332 332 332 332L333 352.5L330 379.5L320.5 424H292C292 424 296 412.5 297.5 406C299 399.5 302.5 369 302.5 369C302.5 369 303.5 344.5 301 334C298.5 323.5 292 304 292 304L291.5 346.5L287.5 383.5L276.5 424H248.5L256.5 403.5L263 379.5C263 379.5 264.5 358.5 263 347C261.5 335.5 255 314 255 314L235 316.5L233.5 369L231 398L226 424H176.5L179.5 406C179.5 406 181 376 181 369C181 362 161.5 279 161.5 279L160 245.5L161.5 211.5Z" fill="red"/>
</svg>
