<svg width="500" height="500" viewBox="0 0 500 500" fill="none" xmlns="http://www.w3.org/2000/svg">
<path d="M135 193.5C138 193.5 145.5 192 150 188.5C154.5 185 157.5 180.75 157.5 180.75C157.5 180.75 161.5 178 165.5 176.5C169.5 175 182.5 168 188.5 161.5C194.5 155 201 135 201 135V121L198.5 101C198.5 101 200 85 198.5 81C197 77.0001 196.5 73.0001 191.5 70C186.5 67 185 67.0002 180.5 69.0001C176 71 174.5 78 174.5 78H167L162.5 70C162.5 70 158 66.0001 153 69.0001C148 72.0001 147 79.5001 147 79.5001C147 79.5001 129 85.5 119.5 92.5C110 99.5 102 112 100.5 115.5C99 119 98.5 129.5 100.5 132.5C102.5 135.5 107.5 137 111.5 137.5C115.5 138 119.5 137.5 119.5 137.5L116.5 150.5C116.5 150.5 113.5 163.5 113 168.5C112.5 173.5 112 177.5 115.5 183C119 188.5 125.5 191 125.5 191C125.5 191 132 193.5 135 193.5Z" fill="red"/>
</svg>
