<svg width="55" height="55" viewBox="0 0 55 55" fill="none" xmlns="http://www.w3.org/2000/svg">
<g clip-path="url(#clip0_144_293)">
<rect width="55" height="55" rx="12" fill="#5EF5FF"/>
<path d="M23.3008 38.205L23.8022 30.9379C23.8022 30.9379 28.0139 29.6258 29.8189 26.1941C31.624 22.7624 30.4206 16 30.4206 16C30.4206 16 32.1253 16.9084 33.9304 18.1196C35.7354 19.3307 37.3398 21.4503 37.3398 21.4503C37.3398 21.4503 39.2738 24.1755 40.0473 26.9006C40.8209 29.6258 40.9499 32.4519 41.351 34.2686C41.7521 36.0854 42.454 36.5901 43.0557 37.3975C43.6574 38.205 44.1588 38.4068 45.2618 38.6087C46.3649 38.8106 46.4652 38.8106 46.4652 38.8106C46.4652 38.8106 45.9638 39.8199 44.961 40.1227C43.9582 40.4255 49.9749 40.0217 50.8774 40.1227C51.7799 40.2236 54.4875 41.132 54.4875 41.132L56.9944 43.4534L58.4986 46.1786L59 49.6102L58.7994 52.7391L58.0975 55.5652C58.0975 55.5652 57.3955 57.6848 56.9944 59.0978C56.5933 60.5109 57.195 62.4286 57.195 62.4286L57.3955 66.5668L56.7939 72.0171L54.8886 81H49.1727C49.1727 81 49.9055 78.9814 50.2758 77.3665C50.646 75.7516 51.4791 72.2189 51.4791 69.8975C51.4791 67.5761 51.7799 64.5481 51.2785 62.4286C50.7772 60.309 49.6741 55.9689 49.0724 55.9689C48.4707 55.9689 48.7716 65.4565 48.7716 65.4565C48.7716 65.4565 48.2702 71.7143 48.0696 72.8245C47.8691 73.9348 46.0641 81 46.0641 81H40.7493C40.7493 81 41.8524 77.972 42.2535 76.8618C42.6546 75.7516 42.9554 74.3385 43.3565 72.4208C43.7577 70.5031 44.0585 67.7779 43.7577 65.4565C43.4568 63.1351 42.3538 58.5932 41.6518 58.4922C40.9499 58.3913 37.4401 58.896 37.4401 58.896L37.2395 69.8975C37.2395 69.8975 36.8384 74.4394 36.6379 75.8525C36.4373 77.2655 35.6351 81 35.6351 81H26.0083C26.0083 81 26.7103 78.7795 26.9108 77.2655C27.1114 75.7516 27.1114 71.7143 27.1114 70.3012C27.1114 69.5906 26.39 64.5964 25.4067 60.2081C24.4346 55.8702 23.6017 53.9503 23.3008 51.427C23 48.9037 23 47.4907 23 45.1693C23 42.8478 23.3008 38.205 23.3008 38.205Z" fill="white"/>
<path d="M19.0397 36C19.6466 36 20.9615 35.6919 21.8719 34.973C22.7822 34.2541 23.2879 33.2271 23.2879 33.2271C23.2879 33.2271 24.0971 33.2271 24.9063 32.919C25.7155 32.6109 28.6488 31.2758 29.8625 29.9408C31.0763 28.6057 30.5706 26.449 30.5706 26.449C30.5706 26.449 31.8855 23.2653 31.9866 21.006C32.0878 18.7466 31.582 17.5142 31.582 17.5142C31.582 17.5142 31.7843 14.1251 31.4809 13.3035C31.1774 12.4819 30.6717 11.6603 30.166 11.3522C29.6603 11.0442 29.1545 10.8388 28.2442 11.2495C27.3338 11.6603 27.0304 13.3035 27.0304 13.3035C27.0304 13.3035 25.7155 13.3035 25.412 12.79C25.1086 12.2765 24.1983 11.3522 24.1983 11.3522C24.1983 11.3522 23.5914 10.6334 22.5799 11.2496C21.5684 11.8658 21.7707 12.9954 21.7707 12.9954C21.7707 12.9954 18.1294 14.5359 16.2076 15.9737C14.2858 17.4115 12.5663 19.8763 12.2628 20.8006C11.9593 21.7248 11.9593 23.2139 12.0605 23.5734C12.1617 23.9329 12.5663 23.9842 13.1732 24.0869C13.1732 24.0869 12.9708 23.1626 12.8697 22.341C12.7686 21.5194 12.9709 20.6979 12.9709 20.6979C12.9709 20.6979 13.1732 22.341 13.4766 23.0599C13.7801 23.7788 14.0835 24.1896 14.4881 24.4977C14.8927 24.8058 16.4099 24.6004 16.4099 24.6004L15.4996 27.6814C15.4996 27.6814 14.8927 30.1462 14.7915 31.1731C14.6904 32.2001 14.7915 32.919 15.4996 34.0487C16.2076 35.1784 17.1179 35.5892 17.1179 35.5892C17.1179 35.5892 18.4328 36 19.0397 36Z" fill="white"/>
</g>
<defs>
<clipPath id="clip0_144_293">
<rect width="55" height="55" rx="12" fill="white"/>
</clipPath>
</defs>
</svg>
